<?xml version="1.0" encoding="UTF-8" standalone="no"?>
<!-- Created with Digital by H.Neemann -->
<!-- created: Mon Sep 18 14:13:33 BRT 2023 -->

<svg
   xmlns:svg="http://www.w3.org/2000/svg"
   xmlns="http://www.w3.org/2000/svg"
   width="434.7mm"
   height="194.1mm"
   viewBox="-225 -142 2898 1294">
<g stroke-linecap="square">
<path d="M 2481,120 L 2481,129" stroke="#808080" stroke-width="4.0" fill="none"/>
<path d="M 2481,200 L 2481,191" stroke="#808080" stroke-width="4.0" fill="none"/>
<path d="M 2181,680 L 2181,689" stroke="#808080" stroke-width="4.0" fill="none"/>
<path d="M 2181,760 L 2181,751" stroke="#808080" stroke-width="4.0" fill="none"/>
<path d="M 2461,780 L 2461,789" stroke="#808080" stroke-width="4.0" fill="none"/>
<path d="M 2461,860 L 2461,851" stroke="#808080" stroke-width="4.0" fill="none"/>
<path d="M 1500,580 L 1500,900 L 2040,900" stroke="#3b3b3b" stroke-width="4.0" fill="none"/>
<path d="M 140,780 L 140,580 L 380,580" stroke="#3b3b3b" stroke-width="4.0" fill="none"/>
<path d="M 460,580 L 800,580 L 800,680 L 920,680 L 924,680" stroke="#3b3b3b" stroke-width="4.0" fill="none"/>
<path d="M 1320,580 L 1460,580 L 1500,580 L 1640,580 L 1760,580 L 1760,680 L 2160,680" stroke="#3b3b3b" stroke-width="4.0" fill="none"/>
<path d="M 1880,200 L 2180,200 L 2180,180 L 2480,180 L 2484,180" stroke="#3b3b3b" stroke-width="4.0" fill="none"/>
<path d="M 1640,580 L 1640,520 L 1980,520" stroke="#3b3b3b" stroke-width="4.0" fill="none"/>
<path d="M 60,780 L 140,780 L 380,780 L 380,740 L 540,740" stroke="#3b3b3b" stroke-width="4.0" fill="none"/>
<path d="M 1460,580 L 1460,1100 L 1960,1100" stroke="#3b3b3b" stroke-width="4.0" fill="none"/>
<path d="M 320,-80 L 720,-80" stroke="#3b3b3b" stroke-width="4.0" fill="none"/>
<path d="M 640,720 L 760,720 L 760,700 L 920,700 L 927,700" stroke="#3b3b3b" stroke-width="4.0" fill="none"/>
<path d="M 2260,720 L 2360,720 L 2360,800 L 2460,800 L 2464,800" stroke="#3b3b3b" stroke-width="4.0" fill="none"/>
<path d="M 1640,240 L 1640,400 L 1980,400" stroke="#3b3b3b" stroke-width="4.0" fill="none"/>
<path d="M 1700,200 L 1700,80 L 2040,80" stroke="#3b3b3b" stroke-width="4.0" fill="none"/>
<path d="M 2120,80 L 2280,80 L 2280,140 L 2480,140 L 2484,140" stroke="#3b3b3b" stroke-width="4.0" fill="none"/>
<path d="M 1720,20 L 1740,20 L 1760,20 L 1800,20 L 1840,20 L 1840,60 L 2020,60" stroke="#3b3b3b" stroke-width="4.0" fill="none"/>
<path d="M 260,700 L 260,600 L 360,600" stroke="#3b3b3b" stroke-width="4.0" fill="none"/>
<path d="M 2120,920 L 2260,920 L 2260,840 L 2460,840 L 2464,840" stroke="#3b3b3b" stroke-width="4.0" fill="none"/>
<path d="M -160,860 L -20,860 L 180,860 L 180,900 L 480,900" stroke="#3b3b3b" stroke-width="4.0" fill="none"/>
<path d="M 320,700 L 320,860 L 500,860" stroke="#3b3b3b" stroke-width="4.0" fill="none"/>
<path d="M 2060,540 L 2460,540 L 2460,780" stroke="#3b3b3b" stroke-width="4.0" fill="none"/>
<path d="M 2560,160 L 2640,160" stroke="#3b3b3b" stroke-width="4.0" fill="none"/>
<path d="M 2040,1120 L 2380,1120 L 2380,860 L 2460,860" stroke="#3b3b3b" stroke-width="4.0" fill="none"/>
<path d="M 1320,740 L 1700,740 L 1780,740 L 1780,700 L 2160,700" stroke="#3b3b3b" stroke-width="4.0" fill="none"/>
<path d="M 1320,1060 L 1440,1060 L 1840,1060 L 1840,760 L 2160,760" stroke="#3b3b3b" stroke-width="4.0" fill="none"/>
<path d="M 1800,20 L 1800,-40 L 2300,-40" stroke="#3b3b3b" stroke-width="4.0" fill="none"/>
<path d="M 1740,20 L 1740,360 L 2000,360" stroke="#3b3b3b" stroke-width="4.0" fill="none"/>
<path d="M 1360,880 L 1360,940 L 2040,940" stroke="#3b3b3b" stroke-width="4.0" fill="none"/>
<path d="M 1440,300 L 1460,300 L 1460,100" stroke="#3b3b3b" stroke-width="4.0" fill="none"/>
<path d="M 580,880 L 820,880 L 820,720 L 920,720 L 924,720" stroke="#3b3b3b" stroke-width="4.0" fill="none"/>
<path d="M 1320,880 L 1360,880 L 1800,880 L 1800,740 L 2160,740" stroke="#3b3b3b" stroke-width="4.0" fill="none"/>
<path d="M -20,860 L -20,560 L 380,560" stroke="#3b3b3b" stroke-width="4.0" fill="none"/>
<path d="M 1700,740 L 1700,560 L 1980,560" stroke="#3b3b3b" stroke-width="4.0" fill="none"/>
<path d="M 1560,240 L 1640,240 L 1660,240 L 1660,200 L 1700,200 L 1800,200" stroke="#3b3b3b" stroke-width="4.0" fill="none"/>
<path d="M 1440,1060 L 1440,1140 L 1960,1140" stroke="#3b3b3b" stroke-width="4.0" fill="none"/>
<path d="M 2540,820 L 2640,820" stroke="#3b3b3b" stroke-width="4.0" fill="none"/>
<path d="M 1760,20 L 1760,180 L 1780,180" stroke="#3b3b3b" stroke-width="4.0" fill="none"/>
<path d="M 2380,-60 L 2380,120 L 2480,120" stroke="#3b3b3b" stroke-width="4.0" fill="none"/>
<path d="M 1000,700 L 1080,700" stroke="#3b3b3b" stroke-width="4.0" fill="none"/>
<path d="M 220,700 L 260,700 L 320,700 L 560,700" stroke="#3b3b3b" stroke-width="4.0" fill="none"/>
<path d="M 1320,380 L 1360,380 L 1360,340" stroke="#3b3b3b" stroke-width="4.0" fill="none"/>
<path d="M 2080,380 L 2300,380 L 2300,200 L 2480,200" stroke="#3b3b3b" stroke-width="4.0" fill="none"/>
<path d="M 2280,-80 L 1360,-80 L 1360,340 L 1720,340 L 1720,220 L 1800,220" stroke="#3b3b3b" stroke-width="4.0" fill="none"/>
<path d="M 2040,100 L 1460,100 L 1460,-60 L 2280,-60" stroke="#3b3b3b" stroke-width="4.0" fill="none"/>
<g>
<circle cx="1460.0" cy="580.0" r="4.0" stroke="#3b3b3b" stroke-width="4.0" fill="#3b3b3b" />
<circle cx="1500.0" cy="580.0" r="4.0" stroke="#3b3b3b" stroke-width="4.0" fill="#3b3b3b" />
<circle cx="1640.0" cy="580.0" r="4.0" stroke="#3b3b3b" stroke-width="4.0" fill="#3b3b3b" />
<circle cx="1700.0" cy="200.0" r="4.0" stroke="#3b3b3b" stroke-width="4.0" fill="#3b3b3b" />
<circle cx="140.0" cy="780.0" r="4.0" stroke="#3b3b3b" stroke-width="4.0" fill="#3b3b3b" />
<circle cx="1740.0" cy="20.0" r="4.0" stroke="#3b3b3b" stroke-width="4.0" fill="#3b3b3b" />
<circle cx="1800.0" cy="20.0" r="4.0" stroke="#3b3b3b" stroke-width="4.0" fill="#3b3b3b" />
<circle cx="1760.0" cy="20.0" r="4.0" stroke="#3b3b3b" stroke-width="4.0" fill="#3b3b3b" />
<circle cx="1360.0" cy="340.0" r="4.0" stroke="#3b3b3b" stroke-width="4.0" fill="#3b3b3b" />
<circle cx="-20.0" cy="860.0" r="4.0" stroke="#3b3b3b" stroke-width="4.0" fill="#3b3b3b" />
<circle cx="1700.0" cy="740.0" r="4.0" stroke="#3b3b3b" stroke-width="4.0" fill="#3b3b3b" />
<circle cx="1460.0" cy="100.0" r="4.0" stroke="#3b3b3b" stroke-width="4.0" fill="#3b3b3b" />
<circle cx="1440.0" cy="1060.0" r="4.0" stroke="#3b3b3b" stroke-width="4.0" fill="#3b3b3b" />
<circle cx="1360.0" cy="880.0" r="4.0" stroke="#3b3b3b" stroke-width="4.0" fill="#3b3b3b" />
<circle cx="1640.0" cy="240.0" r="4.0" stroke="#3b3b3b" stroke-width="4.0" fill="#3b3b3b" />
<circle cx="260.0" cy="700.0" r="4.0" stroke="#3b3b3b" stroke-width="4.0" fill="#3b3b3b" />
<circle cx="320.0" cy="700.0" r="4.0" stroke="#3b3b3b" stroke-width="4.0" fill="#3b3b3b" />
</g>
<g>
<circle cx="736.0" cy="-80.0" r="9.0" stroke="#808080" stroke-width="4.0" fill="none" />
<circle cx="736.0" cy="-80.0" r="15.0" stroke="#808080" stroke-width="4.0" fill="none" />
</g>
<g>
<path d="M 289,-95 L 319,-95 L 319,-65 L 289,-65 Z" stroke="#808080" stroke-width="4.0" fill="none"/>
<circle cx="304.0" cy="-80.0" r="9.0" stroke="#808080" stroke-width="4.0" fill="none" />
<text text-anchor="end" x="275.0" y="-71.0" fill="#808080" style="font-size:24px"><tspan style="font-style:italic;">C</tspan></text>
</g>
<g>
<path d="M 29,765 L 59,765 L 59,795 L 29,795 Z" stroke="#808080" stroke-width="4.0" fill="none"/>
<circle cx="44.0" cy="780.0" r="9.0" stroke="#808080" stroke-width="4.0" fill="none" />
<text text-anchor="end" x="15.0" y="789.0" fill="#808080" style="font-size:24px"><tspan style="font-style:italic;">C</tspan></text>
</g>
<g>
<path d="M -191,845 L -161,845 L -161,875 L -191,875 Z" stroke="#808080" stroke-width="4.0" fill="none"/>
<circle cx="-176.0" cy="860.0" r="9.0" stroke="#808080" stroke-width="4.0" fill="none" />
<text text-anchor="end" x="-205.0" y="869.0" fill="#808080" style="font-size:24px"><tspan style="font-style:italic;">D</tspan></text>
</g>
<g>
<path d="M 189,685 L 219,685 L 219,715 L 189,715 Z" stroke="#808080" stroke-width="4.0" fill="none"/>
<circle cx="204.0" cy="700.0" r="9.0" stroke="#808080" stroke-width="4.0" fill="none" />
<text text-anchor="end" x="175.0" y="709.0" fill="#808080" style="font-size:24px"><tspan style="font-style:italic;">B</tspan></text>
</g>
<g>
<path d="M 610,750 L 561,750 L 561,690 L 610,690 C 620,690 640,700 639,720 C 639,740 620,750 610,750 Z" stroke="#808080" stroke-width="4.0" fill="none"/>
<circle cx="550.0" cy="740.0" r="8.0" stroke="#808080" stroke-width="4.0" fill="none" />
</g>
<g>
<path d="M 550,910 L 501,910 L 501,850 L 550,850 C 560,850 580,860 579,880 C 579,900 560,910 550,910 Z" stroke="#808080" stroke-width="4.0" fill="none"/>
<circle cx="490.0" cy="900.0" r="8.0" stroke="#808080" stroke-width="4.0" fill="none" />
</g>
<g>
<path d="M 430,610 L 381,610 L 381,550 L 430,550 C 440,550 460,560 459,580 C 459,600 440,610 430,610 Z" stroke="#808080" stroke-width="4.0" fill="none"/>
<circle cx="370.0" cy="600.0" r="8.0" stroke="#808080" stroke-width="4.0" fill="none" />
</g>
<g>
<path d="M 950,730 L 920,730 C 930,714 930,686 920,670 L 940,670 C 970,670 990,680 1000,700 C 990,720 970,730 950,730 Z" stroke="#808080" stroke-width="4.0" fill="none"/>
</g>
<g>
<circle cx="1096.0" cy="700.0" r="9.0" stroke="#808080" stroke-width="4.0" fill="none" />
<circle cx="1096.0" cy="700.0" r="15.0" stroke="#808080" stroke-width="4.0" fill="none" />
</g>
<g>
<path d="M 2350,-30 L 2301,-30 L 2301,-90 L 2350,-90 C 2360,-90 2380,-80 2379,-60 C 2379,-40 2360,-30 2350,-30 Z" stroke="#808080" stroke-width="4.0" fill="none"/>
<circle cx="2290.0" cy="-80.0" r="8.0" stroke="#808080" stroke-width="4.0" fill="none" />
<circle cx="2290.0" cy="-60.0" r="8.0" stroke="#808080" stroke-width="4.0" fill="none" />
</g>
<g>
<path d="M 1850,230 L 1801,230 L 1801,170 L 1850,170 C 1860,170 1880,180 1879,200 C 1879,220 1860,230 1850,230 Z" stroke="#808080" stroke-width="4.0" fill="none"/>
<circle cx="1790.0" cy="180.0" r="8.0" stroke="#808080" stroke-width="4.0" fill="none" />
</g>
<g>
<path d="M 2090,110 L 2041,110 L 2041,50 L 2090,50 C 2100,50 2120,60 2119,80 C 2119,100 2100,110 2090,110 Z" stroke="#808080" stroke-width="4.0" fill="none"/>
<circle cx="2030.0" cy="60.0" r="8.0" stroke="#808080" stroke-width="4.0" fill="none" />
</g>
<g>
<path d="M 2050,410 L 2001,410 L 2001,350 L 2050,350 C 2060,350 2080,360 2079,380 C 2079,400 2060,410 2050,410 Z" stroke="#808080" stroke-width="4.0" fill="none"/>
<circle cx="1990.0" cy="400.0" r="8.0" stroke="#808080" stroke-width="4.0" fill="none" />
</g>
<g>
<path d="M 1689,5 L 1719,5 L 1719,35 L 1689,35 Z" stroke="#808080" stroke-width="4.0" fill="none"/>
<circle cx="1704.0" cy="20.0" r="9.0" stroke="#808080" stroke-width="4.0" fill="none" />
<text text-anchor="end" x="1675.0" y="29.0" fill="#808080" style="font-size:24px"><tspan style="font-style:italic;">A</tspan></text>
</g>
<g>
<path d="M 1529,225 L 1559,225 L 1559,255 L 1529,255 Z" stroke="#808080" stroke-width="4.0" fill="none"/>
<circle cx="1544.0" cy="240.0" r="9.0" stroke="#808080" stroke-width="4.0" fill="none" />
<text text-anchor="end" x="1515.0" y="249.0" fill="#808080" style="font-size:24px"><tspan style="font-style:italic;">B</tspan></text>
</g>
<g>
<path d="M 1409,285 L 1439,285 L 1439,315 L 1409,315 Z" stroke="#808080" stroke-width="4.0" fill="none"/>
<circle cx="1424.0" cy="300.0" r="9.0" stroke="#808080" stroke-width="4.0" fill="none" />
<text text-anchor="end" x="1395.0" y="309.0" fill="#808080" style="font-size:24px"><tspan style="font-style:italic;">C</tspan></text>
</g>
<g>
<path d="M 1289,365 L 1319,365 L 1319,395 L 1289,395 Z" stroke="#808080" stroke-width="4.0" fill="none"/>
<circle cx="1304.0" cy="380.0" r="9.0" stroke="#808080" stroke-width="4.0" fill="none" />
<text text-anchor="end" x="1275.0" y="389.0" fill="#808080" style="font-size:24px"><tspan style="font-style:italic;">D</tspan></text>
</g>
<g>
<path d="M 2510,190 L 2480,190 C 2490,174 2490,146 2480,130 L 2500,130 C 2530,130 2550,140 2560,160 C 2550,180 2530,190 2510,190 Z" stroke="#808080" stroke-width="4.0" fill="none"/>
</g>
<g>
<circle cx="2656.0" cy="160.0" r="9.0" stroke="#808080" stroke-width="4.0" fill="none" />
<circle cx="2656.0" cy="160.0" r="15.0" stroke="#808080" stroke-width="4.0" fill="none" />
</g>
<g>
<path d="M 2230,750 L 2181,750 L 2181,690 L 2230,690 C 2240,690 2260,700 2259,720 C 2259,740 2240,750 2230,750 Z" stroke="#808080" stroke-width="4.0" fill="none"/>
<circle cx="2170.0" cy="680.0" r="8.0" stroke="#808080" stroke-width="4.0" fill="none" />
<circle cx="2170.0" cy="700.0" r="8.0" stroke="#808080" stroke-width="4.0" fill="none" />
<circle cx="2170.0" cy="740.0" r="8.0" stroke="#808080" stroke-width="4.0" fill="none" />
<circle cx="2170.0" cy="760.0" r="8.0" stroke="#808080" stroke-width="4.0" fill="none" />
</g>
<g>
<path d="M 1289,565 L 1319,565 L 1319,595 L 1289,595 Z" stroke="#808080" stroke-width="4.0" fill="none"/>
<circle cx="1304.0" cy="580.0" r="9.0" stroke="#808080" stroke-width="4.0" fill="none" />
<text text-anchor="end" x="1275.0" y="589.0" fill="#808080" style="font-size:24px"><tspan style="font-style:italic;">A</tspan></text>
</g>
<g>
<path d="M 1289,725 L 1319,725 L 1319,755 L 1289,755 Z" stroke="#808080" stroke-width="4.0" fill="none"/>
<circle cx="1304.0" cy="740.0" r="9.0" stroke="#808080" stroke-width="4.0" fill="none" />
<text text-anchor="end" x="1275.0" y="749.0" fill="#808080" style="font-size:24px"><tspan style="font-style:italic;">B</tspan></text>
</g>
<g>
<path d="M 1289,865 L 1319,865 L 1319,895 L 1289,895 Z" stroke="#808080" stroke-width="4.0" fill="none"/>
<circle cx="1304.0" cy="880.0" r="9.0" stroke="#808080" stroke-width="4.0" fill="none" />
<text text-anchor="end" x="1275.0" y="889.0" fill="#808080" style="font-size:24px"><tspan style="font-style:italic;">C</tspan></text>
</g>
<g>
<path d="M 1289,1045 L 1319,1045 L 1319,1075 L 1289,1075 Z" stroke="#808080" stroke-width="4.0" fill="none"/>
<circle cx="1304.0" cy="1060.0" r="9.0" stroke="#808080" stroke-width="4.0" fill="none" />
<text text-anchor="end" x="1275.0" y="1069.0" fill="#808080" style="font-size:24px"><tspan style="font-style:italic;">D</tspan></text>
</g>
<g>
<path d="M 2010,1150 L 1961,1150 L 1961,1090 L 2010,1090 C 2020,1090 2040,1100 2039,1120 C 2039,1140 2020,1150 2010,1150 Z" stroke="#808080" stroke-width="4.0" fill="none"/>
</g>
<g>
<path d="M 2030,570 L 1981,570 L 1981,510 L 2030,510 C 2040,510 2060,520 2059,540 C 2059,560 2040,570 2030,570 Z" stroke="#808080" stroke-width="4.0" fill="none"/>
</g>
<g>
<path d="M 2090,950 L 2041,950 L 2041,890 L 2090,890 C 2100,890 2120,900 2119,920 C 2119,940 2100,950 2090,950 Z" stroke="#808080" stroke-width="4.0" fill="none"/>
</g>
<g>
<circle cx="2656.0" cy="820.0" r="9.0" stroke="#808080" stroke-width="4.0" fill="none" />
<circle cx="2656.0" cy="820.0" r="15.0" stroke="#808080" stroke-width="4.0" fill="none" />
</g>
<g>
<path d="M 2490,850 L 2460,850 C 2470,834 2470,806 2460,790 L 2480,790 C 2510,790 2530,800 2540,820 C 2530,840 2510,850 2490,850 Z" stroke="#808080" stroke-width="4.0" fill="none"/>
</g>
<g>
<text text-anchor="start" x="420.0" y="-122.0" fill="#808080" style="font-size:24px">Primeiro Algarismo</text>
</g>
<g>
<text text-anchor="start" x="400.0" y="498.0" fill="#808080" style="font-size:24px">Segundo algarismo</text>
</g>
<g>
<text text-anchor="start" x="1760.0" y="-122.0" fill="#808080" style="font-size:24px">Terceiro algarismo</text>
</g>
<g>
<text text-anchor="start" x="1760.0" y="498.0" fill="#808080" style="font-size:24px">Quarto Algarismo</text>
</g>
</g>
</svg>