<?xml version="1.0" encoding="UTF-8" standalone="no"?>
<!-- Created with Digital by H.Neemann -->
<!-- created: Sun Oct 22 22:47:11 BRT 2023 -->

<svg
   xmlns:svg="http://www.w3.org/2000/svg"
   xmlns="http://www.w3.org/2000/svg"
   width="92.1mm"
   height="59.25mm"
   viewBox="335 283 614 395">
<g stroke-linecap="square">
<path d="M 680,480 L 860,480" stroke="#3b3b3b" stroke-width="4.0" fill="none"/>
<path d="M 460,360 L 460,640 L 620,640" stroke="#3b3b3b" stroke-width="4.0" fill="none"/>
<path d="M 600,360 L 600,500 L 620,500" stroke="#3b3b3b" stroke-width="4.0" fill="none"/>
<path d="M 400,360 L 460,360 L 600,360 L 600,320 L 620,320" stroke="#3b3b3b" stroke-width="4.0" fill="none"/>
<path d="M 540,460 L 540,600 L 620,600" stroke="#3b3b3b" stroke-width="4.0" fill="none"/>
<path d="M 680,300 L 860,300" stroke="#3b3b3b" stroke-width="4.0" fill="none"/>
<path d="M 400,300 L 540,300 L 620,300" stroke="#3b3b3b" stroke-width="4.0" fill="none"/>
<path d="M 540,300 L 540,460 L 620,460" stroke="#3b3b3b" stroke-width="4.0" fill="none"/>
<path d="M 680,620 L 860,620" stroke="#3b3b3b" stroke-width="4.0" fill="none"/>
<g>
<circle cx="460.0" cy="360.0" r="4.0" stroke="#3b3b3b" stroke-width="4.0" fill="#3b3b3b" />
<circle cx="600.0" cy="360.0" r="4.0" stroke="#3b3b3b" stroke-width="4.0" fill="#3b3b3b" />
<circle cx="540.0" cy="300.0" r="4.0" stroke="#3b3b3b" stroke-width="4.0" fill="#3b3b3b" />
<circle cx="540.0" cy="460.0" r="4.0" stroke="#3b3b3b" stroke-width="4.0" fill="#3b3b3b" />
</g>
<g>
<circle cx="876.0" cy="300.0" r="9.0" stroke="#808080" stroke-width="4.0" fill="none" />
<circle cx="876.0" cy="300.0" r="15.0" stroke="#808080" stroke-width="4.0" fill="none" />
<text text-anchor="start" x="905.0" y="309.0" fill="#808080" style="font-size:24px"><tspan style="font-style:italic;">Q/d</tspan></text>
</g>
<g>
<circle cx="876.0" cy="480.0" r="9.0" stroke="#808080" stroke-width="4.0" fill="none" />
<circle cx="876.0" cy="480.0" r="15.0" stroke="#808080" stroke-width="4.0" fill="none" />
<text text-anchor="start" x="905.0" y="489.0" fill="#808080" style="font-size:24px"><tspan style="font-style:italic;">Qfd</tspan></text>
</g>
<g>
<circle cx="876.0" cy="620.0" r="9.0" stroke="#808080" stroke-width="4.0" fill="none" />
<circle cx="876.0" cy="620.0" r="15.0" stroke="#808080" stroke-width="4.0" fill="none" />
<text text-anchor="start" x="905.0" y="629.0" fill="#808080" style="font-size:24px"><tspan style="font-style:italic;">Qft</tspan></text>
</g>
<g>
<path d="M 369,285 L 399,285 L 399,315 L 369,315 Z" stroke="#808080" stroke-width="4.0" fill="none"/>
<circle cx="384.0" cy="300.0" r="9.0" stroke="#808080" stroke-width="4.0" fill="none" />
<text text-anchor="end" x="355.0" y="309.0" fill="#808080" style="font-size:24px"><tspan style="font-style:italic;">D</tspan></text>
</g>
<g>
<path d="M 369,345 L 399,345 L 399,375 L 369,375 Z" stroke="#808080" stroke-width="4.0" fill="none"/>
<circle cx="384.0" cy="360.0" r="9.0" stroke="#808080" stroke-width="4.0" fill="none" />
<text text-anchor="end" x="355.0" y="369.0" fill="#808080" style="font-size:24px"><tspan style="font-style:italic;">C</tspan></text>
</g>
<g>
<path d="M 621,286 L 679,286 L 679,334 L 621,334 Z" stroke="#e6e6e6" stroke-width="0.0" fill="#e6e6e6" fill-opacity="0.7843137254901961"/>
<path d="M 621,286 L 679,286 L 679,334 L 621,334 Z" stroke="#808080" stroke-width="4.0" fill="none"/>
<text text-anchor="start" x="624.0" y="306.75" fill="#808080" style="font-size:18px">D</text>
<text text-anchor="start" x="624.0" y="326.75" fill="#808080" style="font-size:18px">clk</text>
<text text-anchor="end" x="676.0" y="306.75" fill="#808080" style="font-size:18px">Q</text>
<text text-anchor="end" x="676.0" y="326.75" fill="#808080" style="font-size:18px">Q'</text>
<text text-anchor="middle" x="650.0" y="351.5" fill="#808080" style="font-size:18px">my_latch_D</text>
</g>
<g>
<path d="M 621,446 L 679,446 L 679,514 L 621,514 Z" stroke="#e6e6e6" stroke-width="0.0" fill="#e6e6e6" fill-opacity="0.7843137254901961"/>
<path d="M 621,446 L 679,446 L 679,514 L 621,514 Z" stroke="#808080" stroke-width="4.0" fill="none"/>
<text text-anchor="start" x="624.0" y="466.75" fill="#808080" style="font-size:18px">D</text>
<text text-anchor="start" x="624.0" y="506.75" fill="#808080" style="font-size:18px">clk</text>
<text text-anchor="end" x="676.0" y="486.75" fill="#808080" style="font-size:18px">Q</text>
<text text-anchor="middle" x="650.0" y="531.5" fill="#808080" style="font-size:18px">my_flip_flop_D</text>
</g>
<g>
<path d="M 621,586 L 679,586 L 679,654 L 621,654 Z" stroke="#e6e6e6" stroke-width="0.0" fill="#e6e6e6" fill-opacity="0.7843137254901961"/>
<path d="M 621,586 L 679,586 L 679,654 L 621,654 Z" stroke="#808080" stroke-width="4.0" fill="none"/>
<text text-anchor="start" x="624.0" y="606.75" fill="#808080" style="font-size:18px">T</text>
<text text-anchor="start" x="624.0" y="646.75" fill="#808080" style="font-size:18px">clk</text>
<text text-anchor="end" x="676.0" y="626.75" fill="#808080" style="font-size:18px">Q</text>
<text text-anchor="middle" x="650.0" y="671.5" fill="#808080" style="font-size:18px">my_toggle</text>
</g>
</g>
</svg>