<?xml version="1.0" encoding="UTF-8" standalone="no"?>
<!-- Created with Digital by H.Neemann -->
<!-- created: Sun Oct 22 22:46:51 BRT 2023 -->

<svg
   xmlns:svg="http://www.w3.org/2000/svg"
   xmlns="http://www.w3.org/2000/svg"
   width="145.65mm"
   height="44.1mm"
   viewBox="-65 203 971 294">
<g stroke-linecap="square">
<path d="M 20,480 L 120,480 L 220,480" stroke="#3b3b3b" stroke-width="4.0" fill="none"/>
<path d="M 320,240 L 540,240" stroke="#3b3b3b" stroke-width="4.0" fill="none"/>
<path d="M 640,260 L 700,260 L 840,260" stroke="#3b3b3b" stroke-width="4.0" fill="none"/>
<path d="M 120,480 L 120,260 L 220,260" stroke="#3b3b3b" stroke-width="4.0" fill="none"/>
<path d="M 20,220 L 20,340 L 60,340" stroke="#3b3b3b" stroke-width="4.0" fill="none"/>
<path d="M 100,340 L 160,340 L 160,440 L 220,440" stroke="#3b3b3b" stroke-width="4.0" fill="none"/>
<path d="M 640,440 L 680,440 L 760,440 L 760,460 L 820,460" stroke="#3b3b3b" stroke-width="4.0" fill="none"/>
<path d="M 320,460 L 540,460" stroke="#3b3b3b" stroke-width="4.0" fill="none"/>
<path d="M 0,220 L 20,220 L 220,220" stroke="#3b3b3b" stroke-width="4.0" fill="none"/>
<path d="M 540,420 L 480,420 L 480,360 L 700,360 L 700,260" stroke="#3b3b3b" stroke-width="4.0" fill="none"/>
<path d="M 680,440 L 680,320 L 480,320 L 480,280 L 540,280" stroke="#3b3b3b" stroke-width="4.0" fill="none"/>
<path d="M 240,440 L 244,440" stroke="#3b3b3b" stroke-width="4.0" fill="none"/>
<path d="M 240,480 L 244,480" stroke="#3b3b3b" stroke-width="4.0" fill="none"/>
<g>
<circle cx="120.0" cy="480.0" r="4.0" stroke="#3b3b3b" stroke-width="4.0" fill="#3b3b3b" />
<circle cx="700.0" cy="260.0" r="4.0" stroke="#3b3b3b" stroke-width="4.0" fill="#3b3b3b" />
<circle cx="680.0" cy="440.0" r="4.0" stroke="#3b3b3b" stroke-width="4.0" fill="#3b3b3b" />
<circle cx="20.0" cy="220.0" r="4.0" stroke="#3b3b3b" stroke-width="4.0" fill="#3b3b3b" />
</g>
<g>
<path d="M 590,290 L 541,290 L 541,230 L 590,230 C 600,230 620,240 619,260 C 619,280 600,290 590,290 Z" stroke="#808080" stroke-width="4.0" fill="none"/>
<circle cx="630.0" cy="260.0" r="9.0" stroke="#808080" stroke-width="4.0" fill="none" />
</g>
<g>
<path d="M 590,470 L 541,470 L 541,410 L 590,410 C 600,410 620,420 619,440 C 619,460 600,470 590,470 Z" stroke="#808080" stroke-width="4.0" fill="none"/>
<circle cx="630.0" cy="440.0" r="9.0" stroke="#808080" stroke-width="4.0" fill="none" />
</g>
<g>
<circle cx="856.0" cy="260.0" r="9.0" stroke="#808080" stroke-width="4.0" fill="none" />
<circle cx="856.0" cy="260.0" r="15.0" stroke="#808080" stroke-width="4.0" fill="none" />
<text text-anchor="start" x="885.0" y="269.0" fill="#808080" style="font-size:24px"><tspan style="font-style:italic;">Q</tspan></text>
</g>
<g>
<circle cx="836.0" cy="460.0" r="9.0" stroke="#808080" stroke-width="4.0" fill="none" />
<circle cx="836.0" cy="460.0" r="15.0" stroke="#808080" stroke-width="4.0" fill="none" />
<text text-anchor="start" x="865.0" y="469.0" fill="#808080" style="font-size:24px"><tspan style="font-style:italic;">Q'</tspan></text>
</g>
<g>
<path d="M -31,205 L -1,205 L -1,235 L -31,235 Z" stroke="#808080" stroke-width="4.0" fill="none"/>
<circle cx="-16.0" cy="220.0" r="9.0" stroke="#808080" stroke-width="4.0" fill="none" />
<text text-anchor="end" x="-45.0" y="229.0" fill="#808080" style="font-size:24px"><tspan style="font-style:italic;">D</tspan></text>
</g>
<g>
<path d="M -11,465 L 19,465 L 19,495 L -11,495 Z" stroke="#808080" stroke-width="4.0" fill="none"/>
<circle cx="4.0" cy="480.0" r="9.0" stroke="#808080" stroke-width="4.0" fill="none" />
<text text-anchor="end" x="-25.0" y="489.0" fill="#808080" style="font-size:24px"><tspan style="font-style:italic;">clk</tspan></text>
</g>
<g>
<path d="M 270,490 L 240,490 C 250,474 250,446 240,430 L 260,430 C 290,430 310,440 320,460 C 310,480 290,490 270,490 Z" stroke="#808080" stroke-width="4.0" fill="none"/>
<circle cx="230.0" cy="440.0" r="8.0" stroke="#808080" stroke-width="4.0" fill="none" />
<circle cx="230.0" cy="480.0" r="8.0" stroke="#808080" stroke-width="4.0" fill="none" />
</g>
<g>
<path d="M 61,328 L 79,340 L 61,352 Z" stroke="#808080" stroke-width="4.0" fill="none"/>
<circle cx="90.0" cy="340.0" r="9.0" stroke="#808080" stroke-width="4.0" fill="none" />
</g>
<g>
<path d="M 270,270 L 221,270 L 221,210 L 270,210 C 280,210 300,220 299,240 C 299,260 280,270 270,270 Z" stroke="#808080" stroke-width="4.0" fill="none"/>
<circle cx="310.0" cy="240.0" r="9.0" stroke="#808080" stroke-width="4.0" fill="none" />
</g>
</g>
</svg>